<?xml version="1.0" standalone="no"?>
<!DOCTYPE svg PUBLIC "-//W3C//DTD SVG 20010904//EN"
 "http://www.w3.org/TR/2001/REC-SVG-20010904/DTD/svg10.dtd">
<svg version="1.0" xmlns="http://www.w3.org/2000/svg"
 width="896.000000pt" height="896.000000pt" viewBox="0 0 896.000000 896.000000"
 preserveAspectRatio="xMidYMid meet">
<metadata>
Created by potrace 1.14, written by Peter Selinger 2001-2017
</metadata>
<g transform="translate(0.000000,896.000000) scale(0.100000,-0.100000)"
fill="#000000" stroke="none">
<path d="M4207 7434 c-1 -1 -60 -5 -131 -8 -72 -4 -146 -8 -165 -11 -20 -2
-72 -6 -115 -10 -44 -3 -93 -8 -110 -10 -17 -2 -52 -6 -78 -9 -51 -6 -109 -15
-148 -22 -14 -2 -41 -6 -60 -9 -33 -5 -47 -7 -110 -20 -14 -2 -36 -7 -50 -9
-14 -2 -56 -12 -95 -21 -38 -9 -77 -18 -85 -20 -192 -45 -444 -151 -533 -224
-85 -70 -135 -132 -162 -201 -25 -66 -28 -83 -29 -212 0 -64 -4 -120 -8 -124
-4 -3 -22 -8 -40 -10 -44 -5 -92 -12 -95 -15 -4 -2 -12 -4 -68 -14 -27 -4 -54
-9 -60 -11 -5 -1 -26 -5 -45 -9 -19 -3 -51 -10 -70 -15 -19 -5 -46 -11 -60
-14 -21 -4 -72 -15 -142 -32 -10 -2 -26 -6 -35 -8 -193 -45 -610 -174 -639
-197 -6 -5 -19 -10 -30 -12 -10 -2 -36 -11 -58 -20 -21 -9 -40 -17 -41 -17 -2
0 -38 -17 -82 -37 -43 -21 -80 -38 -83 -38 -3 0 -9 -3 -15 -7 -13 -8 -123 -68
-156 -85 -15 -7 -32 -20 -39 -28 -7 -8 -17 -15 -22 -15 -16 0 -150 -104 -214
-166 -61 -59 -144 -165 -144 -183 0 -5 -4 -11 -8 -13 -9 -3 -59 -119 -69 -158
-3 -14 -7 -74 -8 -135 -3 -94 1 -120 21 -180 29 -85 38 -104 86 -177 69 -104
173 -199 355 -326 30 -21 241 -136 253 -138 3 0 32 -13 65 -28 120 -56 362
-143 540 -195 115 -34 248 -70 275 -75 14 -2 72 -16 130 -30 58 -14 150 -34
205 -45 166 -34 201 -40 254 -46 18 -2 34 -5 36 -7 2 -2 6 -41 9 -88 3 -47 8
-96 12 -110 3 -14 7 -41 10 -60 3 -19 9 -52 15 -74 6 -21 8 -40 6 -42 -2 -3
-276 -6 -607 -7 l-604 -2 -38 -180 c-21 -99 -40 -189 -42 -200 -2 -11 -18 -87
-36 -170 -38 -179 -41 -194 -45 -220 -2 -11 -13 -60 -24 -110 -12 -49 -23
-104 -26 -122 -3 -17 -12 -62 -20 -100 -9 -37 -18 -79 -20 -93 -3 -14 -8 -36
-12 -50 -3 -14 -7 -29 -8 -35 0 -5 -4 -26 -9 -45 -4 -19 -8 -46 -10 -60 -2
-14 -6 -32 -9 -40 -5 -12 -43 -196 -81 -385 -15 -71 -40 -189 -51 -240 -8 -32
-12 -61 -10 -64 6 -5 1545 -3 1600 3 124 12 265 59 313 104 7 6 17 12 22 12 5
0 22 12 39 26 25 21 34 23 51 14 11 -6 20 -15 20 -20 0 -6 4 -10 9 -10 6 0 30
-13 54 -29 71 -49 203 -88 327 -97 41 -3 722 -6 745 -3 6 0 42 0 80 0 313 -4
1636 -1 1695 4 79 7 125 12 125 15 0 1 8 3 18 5 13 2 17 -1 13 -11 -7 -17 -98
-16 790 -16 755 0 819 2 929 27 67 15 187 68 206 91 6 8 15 14 20 14 11 0 54
37 114 98 58 59 119 176 141 273 14 61 26 116 29 142 2 15 6 31 9 35 4 7 16
74 20 112 1 9 4 20 7 25 7 13 4 135 -5 169 -5 19 -1 37 13 59 37 61 60 137 95
309 30 152 36 192 38 233 0 14 -11 94 -18 130 -9 41 -55 145 -66 145 -4 0 -8
6 -8 13 0 35 -180 177 -224 177 -9 0 -16 4 -16 9 0 5 -21 14 -47 20 -27 6 -57
14 -68 16 -86 22 -161 24 -1076 25 l-116 0 7 38 c5 20 11 48 14 62 4 14 9 45
12 70 6 52 6 51 30 51 44 -1 61 -2 99 -2 22 0 47 0 55 1 8 0 40 0 70 1 l56 0
-1 100 c0 55 3 103 7 105 8 5 23 9 98 25 25 6 56 13 70 16 14 3 32 7 40 8 8 1
22 5 30 7 8 3 69 19 135 36 467 116 851 266 1096 427 45 30 84 55 86 55 2 0
14 9 26 20 12 11 49 43 82 72 141 122 240 281 263 423 8 49 7 180 -1 218 -7
35 -28 98 -36 112 -3 6 -6 15 -7 20 -2 11 -57 107 -76 132 -64 82 -278 272
-328 291 -8 3 -17 8 -20 12 -7 8 -172 100 -230 127 -112 52 -162 73 -255 108
-55 20 -122 45 -150 55 -108 40 -469 143 -577 164 -13 2 -52 11 -88 20 -36 8
-77 17 -93 20 -15 3 -35 7 -45 10 -15 4 -64 13 -112 20 -8 2 -40 8 -70 14 -30
6 -70 13 -89 16 -18 3 -37 8 -42 13 -4 4 -9 62 -10 127 -1 120 -8 165 -35 223
-19 42 -79 120 -116 151 -17 14 -36 32 -44 40 -8 7 -14 11 -14 7 0 -3 -15 5
-33 19 -79 60 -373 173 -522 201 -11 2 -20 4 -20 5 0 2 -18 6 -63 14 -18 4
-63 13 -100 20 -37 8 -114 22 -172 30 -96 14 -137 19 -242 32 -21 2 -57 6 -80
9 -24 3 -79 7 -123 10 -44 3 -111 7 -150 11 -66 5 -723 13 -728 8z"/>
</g>
</svg>
